<svg id="Line" xmlns="http://www.w3.org/2000/svg" viewBox="0 0 64 64"><defs><style>.cls-1{fill:#231f20;}</style></defs><title>1</title><path class="cls-1" d="M51.99121,27.90723H45.71429a2.99433,2.99433,0,0,0-2.978-2.78223H7a3.00328,3.00328,0,0,0-3,3v8.47949A19.92653,19.92653,0,0,0,15.27875,54.52637H7.33691a1.00014,1.00014,0,0,0,.00007,2H23.9209c.47287-.02457,17.47784.01771,18.47854-.00006a1.00016,1.00016,0,0,0-.00009-2H34.4574A19.92648,19.92648,0,0,0,45.73633,36.60449V29.90723h6.25488c7.93365.25046,7.94627,11.76392-.00013,12.01856H50a1,1,0,0,0,0,2h1.99121C62.59028,43.52944,62.60823,28.31093,51.99121,27.90723Zm-8.25488,8.69726C43.08,60.584,6.65268,60.57858,6,36.60435V28.125a1.001,1.001,0,0,1,1-1h7.46777v4.09375H13.35742a3.00328,3.00328,0,0,0-3,3v4.2207a3.00328,3.00328,0,0,0,3,3h4.22071a3.00328,3.00328,0,0,0,3-3v-4.2207a3.00328,3.00328,0,0,0-3-3H16.46777V27.125H42.73633a1.001,1.001,0,0,1,1,1Zm-26.1582-3.38574a1.001,1.001,0,0,1,1,1v4.2207a1.001,1.001,0,0,1-1,1H13.35742a1.001,1.001,0,0,1-1-1C12.46815,32.14684,11.29079,33.331,17.57813,33.21875Z"/><path class="cls-1" d="M22.35986,20.69531a2.33309,2.33309,0,0,0,3.28467,0l4.93311-4.93552c4.26876-4.43792-1.81684-11.027-6.57677-7.12784a4.88007,4.88007,0,0,0-7.99982,3.69243,4.81935,4.81935,0,0,0,1.42327,3.43541Zm-3.52-10.38574a2.86284,2.86284,0,0,1,4.03565.00491c.48653.576,1.16686,1.04077,1.833.416l.42087-.41988a2.85285,2.85285,0,0,1,4.03412,4.03424l-4.934,4.93646a.27235.27235,0,0,1-.45556,0l-4.936-4.93555A2.862,2.862,0,0,1,18.83984,10.30957Z"/></svg>